 
http://leetleech.org/images/89984586199045545745.png
 
http://leetleech.org/images/33643208201498069296.jpg
 
http://leetleech.org/images/61586607836863867063.png
 
http://leetleech.org/images/01055769885960762953.png
 
http://leetleech.org/images/84342316637975683589.png

Top Gear S17E04 HDTV XviD-RiVER [ICM369]

The team uses caravans to attempt to make train travel cheaper, 
faster and more interesting, replacing the locomotive with a 
specially modified car and carriages. 

Also Jeremy Clarkson takes the Jaguar XKR-S and the recently 
updated Nissan GT-R for a test drive on the track to compare them.

__________

Format                           : AVI
Format/Info                      : Audio Video Interleave
File size                        : 550 MiB
Duration                         : 1h 1mn
Overall bit rate                 : 1 255 Kbps

Video
ID                               : 0
Format                           : MPEG-4 Visual
Format profile                   : Advanced Simple@L5
Format settings, BVOP            : 2
Format settings, QPel            : No
Format settings, GMC             : No warppoints
Format settings, Matrix          : Default (H.263)
Codec ID                         : XVID
Codec ID/Hint                    : XviD
Duration                         : 1h 1mn
Bit rate                         : 1 110 Kbps
Width                            : 624 pixels
Height                           : 352 pixels
Display aspect ratio             : 16:9
Frame rate                       : 25.000 fps
Color space                      : YUV
Chroma subsampling               : 4:2:0
Bit depth                        : 8 bits
Scan type                        : Progressive
Compression mode                 : Lossy
Bits/(Pixel*Frame)               : 0.202
Stream size                      : 486 MiB (88%)
Writing library                  : XviD 1.2.1 (UTC 2008-12-04)

Audio
ID                               : 1
Format                           : MPEG Audio
Format version                   : Version 1
Format profile                   : Layer 3
Mode                             : Joint stereo
Mode extension                   : MS Stereo
Codec ID                         : 55
Codec ID/Hint                    : MP3
Duration                         : 1h 1mn
Bit rate mode                    : Variable
Bit rate                         : 128 Kbps
Channel(s)                       : 2 channels
Sampling rate                    : 48.0 KHz
Compression mode                 : Lossy
Stream size                      : 58.1 MiB (11%)
Alignment                        : Aligned on interleaves
Interleave, duration             : 24 ms (0.60 video frame)
Interleave, preload duration     : 46 ms
Writing library                  : LAME3.90.
Encoding settings                : -m j -V 4 -q 2 -lowpass 17.6 --abr 128
__________



